<svg xmlns="http://www.w3.org/2000/svg" viewBox="0 0 32 32"><title>content-files-books-2</title><g><path d="M19.81,22.855v-1.52H18.29v1.52H10.67v-1.52H9.15v-4.57h1.52v-1.53h7.62v1.53h1.52v-1.53H30.48v1.53H32v-3.05H25.91V12.2H24.39v1.52H15.24V12.2H13.72v-1.53h1.52V9.145h9.15v1.52h1.52V6.1H24.39v1.52H15.24V6.1H13.72v1.52H1.53v1.53H0v4.57H1.53v1.52H3.05v1.53H4.58v-1.53H7.62v1.53H6.1v4.57H7.62v1.52H4.58v-1.52H3.05v1.52H1.53v1.53H0v4.57H1.53v1.52H32v-3.05H30.48v1.53H18.29v-1.53H16.77v-1.52h1.52v-1.52H30.48v1.52H32v-4.57H30.48v1.52ZM6.1,12.2H3.05v-1.53H6.1Zm7.62,13.71H12.2v1.52h1.52v1.53H12.2v-1.53H10.67v-1.52H12.2v-1.52h1.52Z" fill="#252a34"></path><rect x="28.96" y="16.765" width="1.52" height="4.57" fill="#252a34"></rect><rect x="19.81" y="25.905" width="10.67" height="1.52" fill="#252a34"></rect><rect x="21.34" y="19.805" width="6.09" height="1.53" fill="#252a34"></rect><rect x="21.34" y="16.765" width="6.09" height="1.52" fill="#252a34"></rect><rect x="16.77" y="10.665" width="7.62" height="1.53" fill="#252a34"></rect><rect x="16.77" y="4.575" width="7.62" height="1.52" fill="#252a34"></rect><rect x="16.77" y="16.765" width="1.52" height="4.57" fill="#252a34"></rect><rect x="12.2" y="4.575" width="1.52" height="1.52" fill="#252a34"></rect><rect x="3.05" y="4.575" width="3.05" height="1.52" fill="#252a34"></rect><polygon points="13.72 3.045 13.72 4.575 15.24 4.575 15.24 3.045 24.39 3.045 24.39 4.575 25.91 4.575 25.91 1.525 1.53 1.525 1.53 3.045 13.72 3.045" fill="#252a34"></polygon><rect x="1.53" y="16.765" width="1.52" height="4.57" fill="#252a34"></rect><rect y="3.045" width="1.53" height="4.57" fill="#252a34"></rect></g></svg>