<svg xmlns="http://www.w3.org/2000/svg" fill="none" viewBox="0.75 0.75 46.5 46.5" stroke-width="0.5"><path fill="#5ebec4" d="M36.5786 35.208C29.1562 39.5949 19.4577 37.8421 14.0847 30.8254C8.28258 23.2483 9.72146 12.4024 17.2985 6.60029C24.8755 0.798202 35.7215 2.23708 41.5236 9.81413C47.415 17.5078 45.5061 30.4998 45.9969 39.6235L42.1912 42.5376L36.5786 35.208Z"></path><path fill="#f92c85" d="M28.0551 37.6324C20.6328 42.0193 10.9343 40.2665 5.56123 33.2498C-0.24086 25.6727 1.19802 14.8268 8.77507 9.02473C10.3797 7.79597 12.131 6.89197 13.9499 6.30225L22.3225 3.92871C20.5591 4.51903 18.8616 5.40633 17.3025 6.6002C9.72542 12.4023 8.28654 23.2482 14.0886 30.8253C17.5428 35.3361 22.7846 37.6715 28.06 37.5987L28.0551 37.6324Z"></path><path fill="#88c123" d="M36.5782 35.208L42.1908 42.5376L33.6634 44.9622L28.0508 37.6325L28.0521 37.5988C30.984 37.559 33.9263 36.7754 36.5782 35.208Z"></path><path stroke="#252a34" stroke-linecap="square" stroke-linejoin="round" d="M36.5786 35.208C29.1562 39.5949 19.4577 37.8421 14.0847 30.8254C8.28258 23.2483 9.72146 12.4024 17.2985 6.60029C24.8755 0.798202 35.7215 2.23708 41.5236 9.81413C47.415 17.5078 45.5061 30.4998 45.9969 39.6235L42.1912 42.5376L36.5786 35.208Z"></path><path stroke="#252a34" stroke-linecap="square" stroke-linejoin="round" d="M28.0551 37.6324C20.6328 42.0193 10.9343 40.2665 5.56123 33.2498C-0.24086 25.6727 1.19802 14.8268 8.77507 9.02473C10.3797 7.79597 12.131 6.89197 13.9499 6.30225L22.3225 3.92871C20.5591 4.51903 18.8616 5.40633 17.3025 6.6002C9.72542 12.4023 8.28654 23.2482 14.0886 30.8253C17.5428 35.3361 22.7846 37.6715 28.06 37.5987L28.0551 37.6324Z"></path><path stroke="#252a34" stroke-linecap="square" stroke-linejoin="round" d="M36.5769 35.208L42.1895 42.5376L33.6621 44.9622L28.0508 37.5988C30.9826 37.559 33.925 36.7754 36.5769 35.208Z"></path></svg>