<svg xmlns="http://www.w3.org/2000/svg" viewBox="0 0 32 32"><title>school-science-graduation-cap</title><g><polygon points="30.47 7.61 28.95 7.61 28.95 10.66 25.9 10.66 25.9 12.19 22.85 12.19 22.85 13.71 25.9 13.71 25.9 18.28 24.38 18.28 24.38 19.81 25.9 19.81 25.9 22.85 27.42 22.85 27.42 12.19 28.95 12.19 28.95 25.9 27.42 25.9 27.42 32 32 32 32 25.9 30.47 25.9 30.47 7.61" fill="#252a34"></polygon><rect x="25.9" y="6.09" width="3.05" height="1.52" fill="#252a34"></rect><rect x="24.38" y="22.85" width="1.52" height="1.53" fill="#252a34"></rect><rect x="19.8" y="9.14" width="6.1" height="1.52" fill="#252a34"></rect><rect x="22.85" y="4.57" width="3.05" height="1.52" fill="#252a34"></rect><rect x="21.33" y="24.38" width="3.05" height="1.52" fill="#252a34"></rect><rect x="21.33" y="19.81" width="3.05" height="1.52" fill="#252a34"></rect><rect x="19.8" y="13.71" width="3.05" height="1.52" fill="#252a34"></rect><rect x="19.8" y="3.04" width="3.05" height="1.53" fill="#252a34"></rect><rect x="9.14" y="25.9" width="12.19" height="1.52" fill="#252a34"></rect><rect x="9.14" y="21.33" width="12.19" height="1.52" fill="#252a34"></rect><rect x="16.76" y="15.23" width="3.04" height="1.53" fill="#252a34"></rect><rect x="13.71" y="7.61" width="6.09" height="1.53" fill="#252a34"></rect><rect x="16.76" y="1.52" width="3.04" height="1.52" fill="#252a34"></rect><rect x="13.71" width="3.05" height="1.52" fill="#252a34"></rect><rect x="13.71" y="16.76" width="3.05" height="1.52" fill="#252a34"></rect><rect x="10.66" y="1.52" width="3.05" height="1.52" fill="#252a34"></rect><rect x="10.66" y="15.23" width="3.05" height="1.53" fill="#252a34"></rect><rect x="7.61" y="3.04" width="3.05" height="1.53" fill="#252a34"></rect><rect x="6.09" y="24.38" width="3.05" height="1.52" fill="#252a34"></rect><rect x="6.09" y="19.81" width="3.05" height="1.52" fill="#252a34"></rect><rect x="7.61" y="13.71" width="3.05" height="1.52" fill="#252a34"></rect><rect x="4.57" y="4.57" width="3.04" height="1.52" fill="#252a34"></rect><rect x="4.57" y="22.85" width="1.52" height="1.53" fill="#252a34"></rect><polygon points="6.09 19.81 6.09 18.28 4.57 18.28 4.57 13.71 7.61 13.71 7.61 12.19 4.57 12.19 4.57 10.66 1.52 10.66 1.52 12.19 3.04 12.19 3.04 22.85 4.57 22.85 4.57 19.81 6.09 19.81" fill="#252a34"></polygon><rect x="1.52" y="6.09" width="3.05" height="1.52" fill="#252a34"></rect><rect y="7.61" width="1.52" height="3.05" fill="#252a34"></rect></g></svg>