<svg xmlns="http://www.w3.org/2000/svg" fill="none" viewBox="0.75 0.75 46.5 46.5" stroke-width="0.5"><path fill="#88c123" fill-rule="evenodd" d="M14.3789 27.6927L14.3789 2L27.9014 2L27.9014 27.6927L14.3789 27.6927Z" clip-rule="evenodd"></path><path fill="#88c123" fill-rule="evenodd" d="M14.3789 42.4636L14.3789 34.1421L27.9014 34.1421L27.9014 42.4636L14.3789 42.4636Z" clip-rule="evenodd"></path><path fill="#f92c85" d="M20.0999 31.229L14.3789 27.6924H27.9014L33.6224 31.229L20.0999 31.229Z"></path><path fill="#f92c85" d="M20.0999 46.0005L14.3789 42.4639H27.9014L33.6224 46.0005L20.0999 46.0005Z"></path><path fill="#5ebec4" d="M33.6234 5.53664L33.6234 31.2293L27.9023 27.6927V2L33.6234 5.53664Z"></path><path fill="#5ebec4" d="M33.6234 37.6787V46.0002L27.9023 42.4636V34.1421L33.6234 37.6787Z"></path><path stroke="#252a34" stroke-linejoin="round" d="M14.3789 27.6927L14.3789 2L27.9014 2L27.9014 27.6927L14.3789 27.6927Z" clip-rule="evenodd"></path><path stroke="#252a34" stroke-linejoin="round" d="M14.3789 42.4636L14.3789 34.1421L27.9014 34.1421L27.9014 42.4636L14.3789 42.4636Z" clip-rule="evenodd"></path><path stroke="#252a34" stroke-linejoin="round" d="M20.0999 31.229L14.3789 27.6924H27.9014L33.6224 31.229L20.0999 31.229Z"></path><path stroke="#252a34" stroke-linejoin="round" d="M20.0999 46.0005L14.3789 42.4639H27.9014L33.6224 46.0005L20.0999 46.0005Z"></path><path stroke="#252a34" stroke-linejoin="round" d="M33.6234 5.53664L33.6234 31.2293L27.9023 27.6927V2L33.6234 5.53664Z"></path><path stroke="#252a34" stroke-linejoin="round" d="M33.6234 37.6787V46.0002L27.9023 42.4636V34.1421L33.6234 37.6787Z"></path></svg>