<svg xmlns="http://www.w3.org/2000/svg" fill="none" viewBox="0.75 0.75 46.5 46.5" stroke-width="0.5"><path fill="#88c123" fill-rule="evenodd" d="M33.9841 31.5823C37.1744 25.2491 36.1254 17.3268 30.8371 12.0385C24.2402 5.4416 13.5445 5.4416 6.94766 12.0385C0.350778 18.6354 0.350779 29.331 6.94766 35.9279C12.236 41.2162 20.1583 42.2652 26.4915 39.0749L33.4171 46.0005L40.9097 38.5079L33.9841 31.5823ZM24.3654 18.5102C27.3883 21.5331 27.3883 26.4342 24.3654 29.4572C21.3425 32.4801 16.4414 32.4801 13.4184 29.4572C10.3955 26.4342 10.3955 21.5331 13.4184 18.5102C16.4414 15.4873 21.3425 15.4873 24.3654 18.5102Z" clip-rule="evenodd"></path><path fill="#f92c85" d="M16.8106 16.5244C15.5183 19.3761 16.0444 22.8505 18.389 25.1951C20.4348 27.2409 23.3409 27.9022 25.9429 27.1789C25.569 28.0039 25.0428 28.7768 24.3645 29.4551C21.3416 32.478 16.4405 32.478 13.4176 29.4551C10.3947 26.4322 10.3947 21.5311 13.4176 18.5082C14.3946 17.5311 15.5679 16.8699 16.8106 16.5244Z"></path><path fill="#5ebec4" d="M33.9818 31.5808C37.1721 25.2475 36.123 17.3252 30.8347 12.0369C24.2379 5.44003 13.5422 5.44003 6.94531 12.0369L12.0346 6.94766C18.6314 0.350779 29.3271 0.350778 35.924 6.94766C41.2123 12.236 42.2613 20.1582 39.071 26.4915L33.9818 31.5808Z"></path><path fill="#5ebec4" d="M46.0012 33.4178L40.9119 38.507L33.9863 31.5814L39.0756 26.4922L46.0012 33.4178Z"></path><path stroke="#252a34" stroke-linejoin="round" d="M33.9841 31.5804C37.1744 25.2471 36.1254 17.3248 30.8371 12.0365C24.2402 5.43965 13.5445 5.43965 6.94766 12.0365C0.350779 18.6334 0.350779 29.3291 6.94766 35.926C12.236 41.2143 20.1583 42.2633 26.4915 39.073L33.4171 45.9986L40.9097 38.506L33.9841 31.5804ZM24.3658 18.5078C27.3888 21.5307 27.3888 26.4318 24.3658 29.4547C21.3429 32.4776 16.4418 32.4776 13.4189 29.4547C10.396 26.4318 10.396 21.5307 13.4189 18.5078C16.4418 15.4849 21.3429 15.4849 24.3658 18.5078Z" clip-rule="evenodd"></path><path stroke="#252a34" stroke-linejoin="round" d="M16.8106 16.5244C15.5183 19.3761 16.0444 22.8505 18.389 25.1951C20.4348 27.2409 23.3409 27.9022 25.9429 27.1789C25.569 28.0039 25.0428 28.7768 24.3645 29.4551C21.3416 32.478 16.4405 32.478 13.4176 29.4551C10.3947 26.4322 10.3947 21.5311 13.4176 18.5082C14.3946 17.5311 15.5679 16.8699 16.8106 16.5244Z"></path><path stroke="#252a34" stroke-linejoin="round" d="M33.9818 31.5808C37.1721 25.2475 36.123 17.3252 30.8347 12.0369C24.2379 5.44003 13.5422 5.44003 6.94531 12.0369L12.0346 6.94766C18.6314 0.350779 29.3271 0.350778 35.924 6.94766C41.2123 12.236 42.2613 20.1582 39.071 26.4915L33.9818 31.5808Z"></path><path stroke="#252a34" stroke-linejoin="round" d="M46.0012 33.4178L40.9119 38.507L33.9863 31.5814L39.0756 26.4922L46.0012 33.4178Z"></path></svg>