<svg xmlns="http://www.w3.org/2000/svg" fill="none" viewBox="0.75 0.75 46.5 46.5" stroke-width="0.5"><path fill="#88c123" d="M5.67578 25.9197L19.4858 2L25.6704 2.43515L11.8604 26.3548L5.67578 25.9197Z"></path><path fill="#88c123" d="M11.8604 26.3551L14.3081 41.3478L8.12346 40.9127L5.67578 25.9199L11.8604 26.3551Z"></path><path stroke="#252a34" stroke-linejoin="round" d="M5.67578 25.9197L19.4858 2L25.6704 2.43515L11.8604 26.3548L5.67578 25.9197Z"></path><path stroke="#252a34" stroke-linejoin="round" d="M11.8604 26.3551L14.3081 41.3478L8.12346 40.9127L5.67578 25.9199L11.8604 26.3551Z"></path><path fill="#5ebec4" d="M20.0581 31.9854L17.7655 26.4318L12.0005 27.1978L14.3106 41.3478L28.058 36.1454L26.014 31.194L20.0581 31.9854Z"></path><path stroke="#252a34" stroke-linejoin="round" d="M20.0581 31.9854L17.7655 26.4318L12.0005 27.1978L14.3106 41.3478L28.058 36.1454L26.014 31.194L20.0581 31.9854Z"></path><path fill="#f92c85" d="M42.325 12.0517L25.6694 2.43555L11.8594 26.3552L11.997 27.198L17.762 26.432L20.0546 31.9857L26.0105 31.1943L28.0545 36.1456L28.515 35.9714L42.325 12.0517Z"></path><path stroke="#252a34" stroke-linejoin="round" d="M42.325 12.0517L25.6694 2.43555L11.8594 26.3552L11.997 27.198L17.762 26.432L20.0546 31.9857L26.0105 31.1943L28.0545 36.1456L28.515 35.9714L42.325 12.0517Z"></path></svg>